<?xml version="1.0" encoding="UTF-8" standalone="no"?>
<!-- Created with Inkscape (http://www.inkscape.org/) -->

<svg
   xmlns:dc="http://purl.org/dc/elements/1.1/"
   xmlns:cc="http://creativecommons.org/ns#"
   xmlns:rdf="http://www.w3.org/1999/02/22-rdf-syntax-ns#"
   xmlns:svg="http://www.w3.org/2000/svg"
   xmlns="http://www.w3.org/2000/svg"
   xmlns:sodipodi="http://sodipodi.sourceforge.net/DTD/sodipodi-0.dtd"
   xmlns:inkscape="http://www.inkscape.org/namespaces/inkscape"
   width="841mm"
   height="1189mm"
   viewBox="0 0 841 1189"
   version="1.1"
   id="svg9182"
   inkscape:version="0.92.4 (5da689c313, 2019-01-14)"
   sodipodi:docname="drinks list.svg"
   inkscape:export-filename="G:\Desktop\My Stuff\Personal Development\Programming\CS50x -2020\CS50\projects\Android track\CocktailBuilder\svg\icon.png"
   inkscape:export-xdpi="137.666"
   inkscape:export-ydpi="137.666">
  <defs
     id="defs9176" />
  <sodipodi:namedview
     id="base"
     pagecolor="#ffffff"
     bordercolor="#666666"
     borderopacity="1.0"
     inkscape:pageopacity="0.0"
     inkscape:pageshadow="2"
     inkscape:zoom="0.35"
     inkscape:cx="1252.2535"
     inkscape:cy="1924.0955"
     inkscape:document-units="mm"
     inkscape:current-layer="g11345"
     showgrid="true"
     inkscape:window-width="2560"
     inkscape:window-height="1377"
     inkscape:window-x="1912"
     inkscape:window-y="-8"
     inkscape:window-maximized="1" />
  <metadata
     id="metadata9179">
    <rdf:RDF>
      <cc:Work
         rdf:about="">
        <dc:format>image/svg+xml</dc:format>
        <dc:type
           rdf:resource="http://purl.org/dc/dcmitype/StillImage" />
        <dc:title />
      </cc:Work>
    </rdf:RDF>
  </metadata>
  <g
     inkscape:label="Layer 1"
     inkscape:groupmode="layer"
     id="layer1"
     transform="translate(0,892)">
    <g
       transform="matrix(1.126563,0,0,1.1071181,0.12079956,-5.0387425)"
       id="g11092"
       style="stroke-width:0.67156267;stroke-miterlimit:4;stroke-dasharray:none">
      <g
         id="g11345"
         transform="matrix(11.418377,0,0,11.895902,-62.668086,-529.02208)"
         style="stroke-width:0.76828863;stroke-miterlimit:4;stroke-dasharray:none">
        <ellipse
           style="opacity:1;fill:#6aa0e6;fill-opacity:1;stroke:#6dbe47;stroke-width:0.03841443;stroke-linejoin:bevel;stroke-miterlimit:4;stroke-dasharray:none;stroke-dashoffset:0;stroke-opacity:1"
           id="path1524"
           cx="37.859657"
           cy="26.07733"
           rx="25.975079"
           ry="24.738895" />
        <g
           id="g1799"
           transform="translate(-49.893304,7.9784386)">
          <g
             transform="matrix(0.68498101,0,0,0.68498101,60.008182,-9.3263914)"
             id="g11406">
            <path
               style="fill:none;stroke:#000000;stroke-width:0.76828861;stroke-linecap:butt;stroke-linejoin:miter;stroke-miterlimit:4;stroke-dasharray:none;stroke-opacity:1"
               d="m 38.742343,17.643813 c 9.098973,0.03172 17.577024,0.01181 17.577024,0.01181 0,0 -13.434348,12.82523 -13.567984,20.041507 -0.11213,6.055106 -0.106788,13.972945 -0.109691,16.612648"
               id="path817"
               inkscape:connector-curvature="0"
               sodipodi:nodetypes="ccsc" />
            <path
               style="fill:none;stroke:#000000;stroke-width:0.76828861;stroke-linecap:butt;stroke-linejoin:miter;stroke-miterlimit:4;stroke-dasharray:none;stroke-opacity:1"
               d="m 30.002277,58.362158 c -0.591659,0.0444 -1.181513,0.06283 -1.760394,0.04836"
               id="path8982"
               inkscape:connector-curvature="0" />
            <path
               inkscape:connector-curvature="0"
               style="fill:none;stroke:#000000;stroke-width:0.76828861;stroke-linecap:butt;stroke-linejoin:miter;stroke-miterlimit:4;stroke-dasharray:none;stroke-opacity:1"
               d="m 28.771008,20.209617 c 3.865863,4.112347 10.866796,12.267436 10.963464,17.487514 0.133636,7.216278 0.133636,18.174327 0.133636,18.174327 0,0 -0.07671,0.03264 -0.220382,0.09053"
               id="path10040" />
            <path
               inkscape:connector-curvature="0"
               style="fill:none;stroke:#000000;stroke-width:0.76828861;stroke-linecap:butt;stroke-linejoin:miter;stroke-miterlimit:4;stroke-dasharray:none;stroke-opacity:1"
               d="m 43.778951,17.655624 c -5.071433,-0.02843 -9.934757,-0.02513 -13.2427,-0.01666"
               id="path821" />
            <path
               style="fill:none;stroke:#000000;stroke-width:0.76828861;stroke-linecap:butt;stroke-linejoin:miter;stroke-miterlimit:4;stroke-dasharray:none;stroke-opacity:1"
               d="M 37.429972,58.4241 47.855717,58.41383"
               id="path8987"
               inkscape:connector-curvature="0" />
            <path
               style="fill:none;stroke:#000000;stroke-width:0.76828861;stroke-linecap:butt;stroke-linejoin:miter;stroke-miterlimit:4;stroke-dasharray:none;stroke-opacity:1"
               d="m 28.24188,58.407564 1.578718,-0.01654"
               id="path827"
               inkscape:connector-curvature="0"
               sodipodi:nodetypes="cc" />
            <path
               style="fill:none;stroke:#000000;stroke-width:0.76828861;stroke-linecap:butt;stroke-linejoin:miter;stroke-miterlimit:4;stroke-dasharray:none;stroke-opacity:1"
               d="m 31.209623,21.134835 c 19.843749,0 19.890996,0 19.890996,0 0,0 -5.716889,7.984747 -7.79576,9.874628 -2.078868,1.889879 -2.315104,2.267858 -4.015996,0.377976 -1.700893,-1.889882 -8.07924,-10.252604 -8.07924,-10.252604 z"
               id="path864"
               inkscape:connector-curvature="0" />
            <path
               style="fill:none;fill-opacity:1;stroke:#000000;stroke-width:0.76828861;stroke-linecap:butt;stroke-linejoin:miter;stroke-miterlimit:4;stroke-dasharray:none;stroke-opacity:1"
               d="m 30.75582,18.360174 -5.437497,5.195409 v 0 C 24.196694,8.7814276 35.497516,13.829589 35.497516,13.829589 l -4.104664,3.879838"
               id="path10567"
               inkscape:connector-curvature="0"
               sodipodi:nodetypes="ccccc" />
            <path
               style="fill:none;fill-opacity:1;stroke:#000000;stroke-width:0.76828861;stroke-linecap:butt;stroke-linejoin:miter;stroke-miterlimit:4;stroke-dasharray:none;stroke-opacity:1"
               d="m 30.740138,18.342854 -4.623796,4.370925 v 0 c -0.98186,-12.7955165 8.91075,-8.423433 8.91075,-8.423433 l -3.58688,3.41055"
               id="path10562"
               inkscape:connector-curvature="0"
               sodipodi:nodetypes="ccccc" />
            <path
               inkscape:connector-curvature="0"
               style="fill:none;fill-opacity:1;stroke:#000000;stroke-width:0.76828861;stroke-linecap:butt;stroke-linejoin:miter;stroke-miterlimit:4;stroke-dasharray:none;stroke-opacity:1"
               d="m 30.740138,18.342854 v 0"
               id="path10542" />
            <path
               inkscape:connector-curvature="0"
               style="fill:none;stroke:#000000;stroke-width:0.76828861;stroke-linecap:butt;stroke-linejoin:miter;stroke-miterlimit:4;stroke-dasharray:none;stroke-opacity:1"
               d="m 30.834517,17.764537 0.754542,-4.148126"
               id="path10550" />
            <path
               style="fill:none;stroke:#000000;stroke-width:0.76828861;stroke-linecap:butt;stroke-linejoin:miter;stroke-miterlimit:4;stroke-dasharray:none;stroke-opacity:1"
               d="m 27.981317,14.956602 2.538397,2.723589"
               id="path870"
               inkscape:connector-curvature="0"
               sodipodi:nodetypes="cc" />
            <path
               style="fill:none;stroke:#000000;stroke-width:0.76828861;stroke-linecap:butt;stroke-linejoin:miter;stroke-miterlimit:4;stroke-dasharray:none;stroke-opacity:1"
               d="m 30.684311,18.378909 -4.414327,0.404592"
               id="path10545"
               inkscape:connector-curvature="0"
               sodipodi:nodetypes="cc" />
            <path
               style="fill:none;stroke:#000000;stroke-width:0.76828861;stroke-linecap:butt;stroke-linejoin:miter;stroke-miterlimit:4;stroke-dasharray:none;stroke-opacity:1"
               d="m 35.741283,17.633069 -5.507144,0.05011"
               id="path910"
               inkscape:connector-curvature="0"
               sodipodi:nodetypes="cc" />
            <path
               style="fill:none;stroke:#000000;stroke-width:0.76828861;stroke-linecap:butt;stroke-linejoin:miter;stroke-miterlimit:4;stroke-dasharray:none;stroke-opacity:1"
               d="M 54.716861,15.54667 C 40.963683,29.562762 40.963683,29.61997 40.963683,29.61997"
               id="path926"
               inkscape:connector-curvature="0" />
            <path
               inkscape:connector-curvature="0"
               id="path928"
               d="m 52.619631,-0.35105884 a 1.1985418,1.780439 0 0 1 -1.198542,1.78043904 1.1985418,1.780439 0 0 1 -1.198542,-1.78043904 1.1985418,1.780439 0 0 1 1.198542,-1.78043906 1.1985418,1.780439 0 0 1 1.198542,1.78043906 z"
               style="opacity:1;fill:#000000;fill-opacity:1;stroke:none;stroke-width:0.76979494;stroke-miterlimit:4;stroke-dasharray:none;stroke-dashoffset:0;stroke-opacity:1"
               transform="matrix(0.8549675,0.51868157,-0.59218316,0.80580339,0,0)" />
            <path
               style="fill:none;stroke:#000000;stroke-width:0.76828861;stroke-linecap:butt;stroke-linejoin:miter;stroke-miterlimit:4;stroke-dasharray:none;stroke-opacity:1"
               d="M 49.669517,35.675474 41.962211,56.098506 62.316985,63.982045 70.112403,43.59314"
               id="path954"
               inkscape:connector-curvature="0"
               sodipodi:nodetypes="cccc" />
            <path
               inkscape:connector-curvature="0"
               id="path8994"
               d="m 52.611517,58.33042 c 0.588233,0.06007 1.175998,0.08709 1.751202,0.07041"
               style="fill:none;stroke:#000000;stroke-width:0.76828861;stroke-linecap:butt;stroke-linejoin:miter;stroke-miterlimit:4;stroke-dasharray:none;stroke-opacity:1" />
            <path
               sodipodi:nodetypes="cc"
               inkscape:connector-curvature="0"
               id="path8999"
               d="m 52.379096,58.28396 1.987482,0.113916"
               style="fill:none;stroke:#000000;stroke-width:0.76828861;stroke-linecap:butt;stroke-linejoin:miter;stroke-miterlimit:4;stroke-dasharray:none;stroke-opacity:1" />
            <path
               style="fill:none;stroke:#000000;stroke-width:0.76828861;stroke-linecap:butt;stroke-linejoin:miter;stroke-miterlimit:4;stroke-dasharray:none;stroke-opacity:1"
               d="m 43.088431,53.190681 c 5.670298,4.052095 12.386115,6.995693 20.582199,7.819622"
               id="path956"
               inkscape:connector-curvature="0"
               sodipodi:nodetypes="cc" />
            <path
               style="fill:none;stroke:#000000;stroke-width:0.76828861;stroke-linecap:butt;stroke-linejoin:miter;stroke-miterlimit:4;stroke-dasharray:none;stroke-opacity:1"
               d="m 49.52028,35.668342 c 6.090622,4.229175 13.037263,6.823002 20.707241,8.020051"
               id="path958"
               inkscape:connector-curvature="0"
               sodipodi:nodetypes="cc" />
            <path
               sodipodi:nodetypes="cc"
               inkscape:connector-curvature="0"
               id="path960"
               d="m 49.625175,35.659147 c 7.432945,1.490808 14.12686,4.022841 20.486943,7.934729"
               style="fill:none;stroke:#000000;stroke-width:0.76828861;stroke-linecap:butt;stroke-linejoin:miter;stroke-miterlimit:4;stroke-dasharray:none;stroke-opacity:1" />
            <path
               style="fill:none;stroke:#000000;stroke-width:0.76828861;stroke-linecap:butt;stroke-linejoin:miter;stroke-miterlimit:4;stroke-dasharray:none;stroke-opacity:1"
               d="m 45.58677,46.608931 c -0.424626,2.073807 20.526884,6.113606 20.423222,7.707383"
               id="path962"
               inkscape:connector-curvature="0"
               sodipodi:nodetypes="cc" />
            <g
               id="g990"
               transform="matrix(1.0160362,0.19091261,-0.15382352,0.8186482,-2.8336852,-4.2480976)"
               style="stroke-width:0.82791692;stroke-miterlimit:4;stroke-dasharray:none">
              <path
                 sodipodi:nodetypes="ccccc"
                 inkscape:connector-curvature="0"
                 id="path978"
                 d="m 56.822112,51.045821 3.110425,-2.50878 2.864806,2.457545 -2.983309,2.580308 z"
                 style="fill:none;stroke:#000000;stroke-width:0.82791692;stroke-linecap:butt;stroke-linejoin:miter;stroke-miterlimit:4;stroke-dasharray:none;stroke-opacity:1" />
              <path
                 sodipodi:nodetypes="ccc"
                 inkscape:connector-curvature="0"
                 id="path980"
                 d="m 56.774863,50.961131 0.120134,3.458364 2.869095,2.575825"
                 style="fill:none;stroke:#000000;stroke-width:0.82791692;stroke-linecap:butt;stroke-linejoin:miter;stroke-miterlimit:4;stroke-dasharray:none;stroke-opacity:1" />
              <path
                 sodipodi:nodetypes="cc"
                 inkscape:connector-curvature="0"
                 id="path982"
                 d="m 59.811338,57.066886 -0.04456,-3.562297"
                 style="fill:none;stroke:#000000;stroke-width:0.82791692;stroke-linecap:butt;stroke-linejoin:miter;stroke-miterlimit:4;stroke-dasharray:none;stroke-opacity:1" />
              <path
                 sodipodi:nodetypes="ccc"
                 inkscape:connector-curvature="0"
                 id="path984"
                 d="m 59.821124,56.930876 3.187667,-2.377747 -0.164202,-3.649415"
                 style="fill:none;stroke:#000000;stroke-width:0.82791692;stroke-linecap:butt;stroke-linejoin:miter;stroke-miterlimit:4;stroke-dasharray:none;stroke-opacity:1" />
            </g>
            <g
               style="stroke-width:0.82791692;stroke-miterlimit:4;stroke-dasharray:none"
               transform="matrix(-0.30035709,0.98922334,-0.79704434,-0.24200593,114.70746,8.4984969)"
               id="g1000">
              <path
                 style="fill:none;stroke:#000000;stroke-width:0.82791692;stroke-linecap:butt;stroke-linejoin:miter;stroke-miterlimit:4;stroke-dasharray:none;stroke-opacity:1"
                 d="m 56.822112,51.045821 3.110425,-2.50878 2.864806,2.457545 -2.983309,2.580308 z"
                 id="path992"
                 inkscape:connector-curvature="0"
                 sodipodi:nodetypes="ccccc" />
              <path
                 style="fill:none;stroke:#000000;stroke-width:0.82791692;stroke-linecap:butt;stroke-linejoin:miter;stroke-miterlimit:4;stroke-dasharray:none;stroke-opacity:1"
                 d="m 56.774863,50.961131 0.120134,3.458364 2.869095,2.575825"
                 id="path994"
                 inkscape:connector-curvature="0"
                 sodipodi:nodetypes="ccc" />
              <path
                 style="fill:none;stroke:#000000;stroke-width:0.82791692;stroke-linecap:butt;stroke-linejoin:miter;stroke-miterlimit:4;stroke-dasharray:none;stroke-opacity:1"
                 d="m 59.811338,57.066886 -0.04456,-3.562297"
                 id="path996"
                 inkscape:connector-curvature="0"
                 sodipodi:nodetypes="cc" />
              <path
                 style="fill:none;stroke:#000000;stroke-width:0.82791692;stroke-linecap:butt;stroke-linejoin:miter;stroke-miterlimit:4;stroke-dasharray:none;stroke-opacity:1"
                 d="m 59.821124,56.930876 3.187667,-2.377747 -0.164202,-3.649415"
                 id="path998"
                 inkscape:connector-curvature="0"
                 sodipodi:nodetypes="ccc" />
            </g>
            <g
               id="g1010"
               transform="matrix(-1.0127555,-0.20761403,0.1672803,-0.81600481,113.38477,110.62246)"
               style="stroke-width:0.82791686;stroke-miterlimit:4;stroke-dasharray:none">
              <path
                 sodipodi:nodetypes="ccccc"
                 inkscape:connector-curvature="0"
                 id="path1002"
                 d="m 56.822112,51.045821 3.110425,-2.50878 2.864806,2.457545 -2.983309,2.580308 z"
                 style="fill:none;stroke:#000000;stroke-width:0.82791686;stroke-linecap:butt;stroke-linejoin:miter;stroke-miterlimit:4;stroke-dasharray:none;stroke-opacity:1" />
              <path
                 sodipodi:nodetypes="ccc"
                 inkscape:connector-curvature="0"
                 id="path1004"
                 d="m 56.774863,50.961131 0.120134,3.458364 2.869095,2.575825"
                 style="fill:none;stroke:#000000;stroke-width:0.82791686;stroke-linecap:butt;stroke-linejoin:miter;stroke-miterlimit:4;stroke-dasharray:none;stroke-opacity:1" />
              <path
                 sodipodi:nodetypes="cc"
                 inkscape:connector-curvature="0"
                 id="path1006"
                 d="m 59.811338,57.066886 -0.04456,-3.562297"
                 style="fill:none;stroke:#000000;stroke-width:0.82791686;stroke-linecap:butt;stroke-linejoin:miter;stroke-miterlimit:4;stroke-dasharray:none;stroke-opacity:1" />
              <path
                 sodipodi:nodetypes="ccc"
                 inkscape:connector-curvature="0"
                 id="path1008"
                 d="m 59.821124,56.930876 3.187667,-2.377747 -0.164202,-3.649415"
                 style="fill:none;stroke:#000000;stroke-width:0.82791686;stroke-linecap:butt;stroke-linejoin:miter;stroke-miterlimit:4;stroke-dasharray:none;stroke-opacity:1" />
            </g>
            <path
               style="fill:none;stroke:#000000;stroke-width:0.76828861;stroke-linecap:butt;stroke-linejoin:miter;stroke-miterlimit:4;stroke-dasharray:none;stroke-opacity:1"
               d="m 11.300721,26.176644 c 4.301178,-1.840736 8.498448,-4.043939 12.72852,-7.025677 -0.730506,13.398854 23.256697,25.675582 8.546086,33.274261 C 17.607273,60.888527 20.876368,35.176217 10.086159,27.706816"
               id="path8782"
               inkscape:connector-curvature="0"
               sodipodi:nodetypes="cccc" />
            <path
               sodipodi:nodetypes="cccsssc"
               inkscape:connector-curvature="0"
               style="opacity:1;fill:none;fill-opacity:0;stroke:#000000;stroke-width:0.76828861;stroke-miterlimit:4;stroke-dasharray:none;stroke-dashoffset:0;stroke-opacity:1"
               d="m 33.933555,54.983172 c 2.685583,-1.33318 5.227557,-1.496731 5.829273,-0.375058 v 0 c 0.634902,1.183536 -1.115556,3.358106 -3.909756,4.857036 -2.7942,1.498931 -5.574036,1.75461 -6.208935,0.571072 -0.231242,-0.431064 -0.06317,-1.029107 0.277202,-1.646608 0.542093,-0.983478 1.648275,-2.067133 3.2348,-2.988355"
               id="path8713" />
            <path
               style="fill:none;stroke:#000000;stroke-width:0.76828861;stroke-linecap:butt;stroke-linejoin:miter;stroke-miterlimit:4;stroke-dasharray:none;stroke-opacity:1"
               d="M 33.800085,57.837708 C 33.34414,56.215652 33.144404,54.570804 31.246272,53.077072"
               id="path8702"
               inkscape:connector-curvature="0"
               sodipodi:nodetypes="cc" />
            <path
               style="fill:none;stroke:#000000;stroke-width:0.76828861;stroke-linecap:butt;stroke-linejoin:miter;stroke-miterlimit:4;stroke-dasharray:none;stroke-opacity:1"
               d="m 33.145689,52.078696 c 0.165378,2.101743 1.118161,3.610673 2.55207,4.757387"
               id="path8704"
               inkscape:connector-curvature="0"
               sodipodi:nodetypes="cc" />
            <path
               style="fill:none;stroke:#000000;stroke-width:0.76828861;stroke-linecap:butt;stroke-linejoin:miter;stroke-miterlimit:4;stroke-dasharray:none;stroke-opacity:1"
               d="m 33.719875,57.772302 c 0.515582,-0.05089 1.206325,-0.209437 1.901919,-0.976157"
               id="path8706"
               inkscape:connector-curvature="0"
               sodipodi:nodetypes="cc" />
            <path
               style="fill:none;stroke:#000000;stroke-width:0.76828861;stroke-linecap:butt;stroke-linejoin:miter;stroke-miterlimit:4;stroke-dasharray:none;stroke-opacity:1"
               d="m 21.625945,20.103792 c 0.848707,-0.364639 1.609955,-0.687091 2.458382,-0.993831"
               id="path8742"
               inkscape:connector-curvature="0"
               sodipodi:nodetypes="cc" />
            <path
               style="fill:none;stroke:#000000;stroke-width:0.76828861;stroke-linecap:butt;stroke-linejoin:miter;stroke-miterlimit:4;stroke-dasharray:none;stroke-opacity:1"
               d="m 12.149975,24.998512 c 3.053313,-1.910956 5.744936,-3.267927 8.863644,-4.639626"
               id="path8802"
               inkscape:connector-curvature="0"
               sodipodi:nodetypes="cc" />
            <path
               style="fill:none;stroke:#000000;stroke-width:0.76828861;stroke-linecap:butt;stroke-linejoin:miter;stroke-miterlimit:4;stroke-dasharray:none;stroke-opacity:1"
               d="m 13.56183,31.327696 c 4.198273,-1.47433 8.083932,-3.531409 11.62279,-6.234971"
               id="path8715"
               inkscape:connector-curvature="0"
               sodipodi:nodetypes="cc" />
            <path
               style="fill:none;stroke:#000000;stroke-width:0.76828861;stroke-linecap:butt;stroke-linejoin:miter;stroke-miterlimit:4;stroke-dasharray:none;stroke-opacity:1"
               d="m 22.943542,25.84599 c 0.750956,-0.308487 1.42438,-0.557211 2.181889,-0.796459"
               id="path8737"
               inkscape:connector-curvature="0"
               sodipodi:nodetypes="cc" />
            <path
               style="fill:none;stroke:#000000;stroke-width:0.76828861;stroke-linecap:butt;stroke-linejoin:miter;stroke-miterlimit:4;stroke-dasharray:none;stroke-opacity:1"
               d="m 13.463351,31.237506 c 2.908388,-2.039399 5.805199,-3.814505 8.831,-5.116554"
               id="path8717"
               inkscape:connector-curvature="0"
               sodipodi:nodetypes="cc" />
            <path
               style="fill:none;stroke:#000000;stroke-width:0.76828861;stroke-linecap:butt;stroke-linejoin:miter;stroke-miterlimit:4;stroke-dasharray:none;stroke-opacity:1"
               d="M 25.800386,42.665998 20.508357,17.922344 c 1.110297,-2.532885 3.549964,-4.470402 6.598021,-6.165281 l 0.342797,0.368984 c -1.98935,1.274253 -4.694511,2.706719 -6.322824,5.742169 l 5.64358,24.515194 z"
               id="path8719"
               inkscape:connector-curvature="0"
               sodipodi:nodetypes="ccccccc" />
            <g
               id="g8773"
               transform="matrix(0.51989386,-0.67275634,0.6740322,0.3588684,-90.346184,52.980684)"
               style="stroke-width:0.96033609;stroke-miterlimit:4;stroke-dasharray:none">
              <path
                 sodipodi:nodetypes="cccc"
                 inkscape:connector-curvature="0"
                 id="path8746"
                 d="m 86.128923,95.852043 v 0 -10.792725 c 7.040261,-0.01444 7.040261,-0.01444 7.040261,-0.01444"
                 style="fill:none;stroke:#000000;stroke-width:0.96033609;stroke-linecap:butt;stroke-linejoin:miter;stroke-miterlimit:4;stroke-dasharray:none;stroke-opacity:1" />
              <path
                 sodipodi:nodetypes="cccc"
                 style="fill:none;stroke:#000000;stroke-width:0.96033609;stroke-linecap:butt;stroke-linejoin:miter;stroke-miterlimit:4;stroke-dasharray:none;stroke-opacity:1"
                 d="m 86.045724,95.85195 v 0 -10.790485 c -7.296437,0 -7.379339,-0.0019 -7.379339,-0.0019"
                 id="path8748"
                 inkscape:connector-curvature="0" />
              <path
                 sodipodi:nodetypes="ccc"
                 inkscape:connector-curvature="0"
                 id="path8750"
                 d="m 78.561047,85.117775 c 1.63091,-2.127759 4.498658,-3.273129 7.574654,-3.428604 2.613705,0.187917 4.909425,0.934455 7.132843,3.404265"
                 style="fill:none;stroke:#000000;stroke-width:0.96033609;stroke-linecap:butt;stroke-linejoin:miter;stroke-miterlimit:4;stroke-dasharray:none;stroke-opacity:1" />
              <path
                 sodipodi:nodetypes="cc"
                 inkscape:connector-curvature="0"
                 id="path8752"
                 d="m 80.956267,85.019918 c 1.432237,-1.886869 3.193274,-2.661025 5.115234,-3.276188"
                 style="fill:none;stroke:#000000;stroke-width:0.96033609;stroke-linecap:butt;stroke-linejoin:miter;stroke-miterlimit:4;stroke-dasharray:none;stroke-opacity:1" />
              <path
                 inkscape:connector-curvature="0"
                 id="path8754"
                 d="m 86.013056,85.006442 0.04869,-3.358484"
                 style="fill:none;stroke:#000000;stroke-width:0.96033609;stroke-linecap:butt;stroke-linejoin:miter;stroke-miterlimit:4;stroke-dasharray:none;stroke-opacity:1" />
              <path
                 sodipodi:nodetypes="cc"
                 inkscape:connector-curvature="0"
                 id="path8756"
                 d="m 86.086011,81.744162 c 2.456428,0.642119 3.700692,1.874353 4.216739,3.274229"
                 style="fill:none;stroke:#000000;stroke-width:0.96033609;stroke-linecap:butt;stroke-linejoin:miter;stroke-miterlimit:4;stroke-dasharray:none;stroke-opacity:1" />
              <path
                 sodipodi:nodetypes="cc"
                 inkscape:connector-curvature="0"
                 id="path8758"
                 d="m 83.757868,85.036128 c 0.285964,-1.171045 0.981062,-2.24564 2.212386,-3.193824"
                 style="fill:none;stroke:#000000;stroke-width:0.96033609;stroke-linecap:butt;stroke-linejoin:miter;stroke-miterlimit:4;stroke-dasharray:none;stroke-opacity:1" />
              <path
                 sodipodi:nodetypes="cc"
                 style="fill:none;stroke:#000000;stroke-width:0.96033609;stroke-linecap:butt;stroke-linejoin:miter;stroke-miterlimit:4;stroke-dasharray:none;stroke-opacity:1"
                 d="M 88.321222,84.986066 C 88.060343,83.867357 87.341864,82.81402 86.154946,81.827602"
                 id="path8760"
                 inkscape:connector-curvature="0" />
              <path
                 inkscape:connector-curvature="0"
                 id="path8762"
                 d="m 86.528505,81.432915 a 0.46772167,0.47941473 0 0 1 -0.467722,0.479414 0.46772167,0.47941473 0 0 1 -0.467721,-0.479414 0.46772167,0.47941473 0 0 1 0.467721,-0.479415 0.46772167,0.47941473 0 0 1 0.467722,0.479415 z"
                 style="opacity:1;fill:#000000;fill-opacity:1;stroke:none;stroke-width:0.96033609;stroke-miterlimit:4;stroke-dasharray:none;stroke-dashoffset:0;stroke-opacity:1" />
            </g>
          </g>
          <path
             transform="matrix(0.0205685,0,0,0.02008959,5.4789623,-22.875284)"
             inkscape:connector-curvature="0"
             id="path1644"
             d="m 3538.7929,2504.0219 c -78.0881,-10.386 -139.0297,-75.838 -194.5281,-208.9254 -16.1982,-38.8438 -34.4704,-89.2109 -64.1313,-176.7767 -64.7938,-191.2866 -93.5435,-261.7292 -139.3678,-341.4786 -8.4327,-14.6758 -15.0584,-26.9515 -14.7236,-27.2793 0.3347,-0.3277 11.9728,-5.1332 25.8624,-10.6787 35.5367,-14.1884 70.3666,-29.5004 93.7586,-41.2183 17.5818,-8.8074 20.6345,-9.7464 25.0888,-7.7168 4.5002,2.0504 5.594,1.6722 9.7094,-3.3568 2.5509,-3.1171 4.6707,-6.3309 4.7107,-7.1417 0.04,-0.8108 3.9365,-3.422 8.6589,-5.8026 13.418,-6.7643 67.7564,-37.9858 82.4209,-47.357 l 13.2254,-8.4516 55.1049,263.8545 c 30.3078,145.1199 55.3405,264.09 55.6284,264.3779 1.5151,1.5151 57.7753,-16.6297 57.7753,-18.6334 0,-1.302 -27.2753,-123.6281 -60.6117,-271.8358 -51.2853,-228.005 -60.1507,-269.7266 -57.616,-271.1452 1.6476,-0.922 12.1406,-8.4823 23.3177,-16.8006 l 20.322,-15.1241 2.7726,6.6173 c 20.7099,49.4282 58.1021,115.361 105.1533,185.4144 25.1556,37.4536 43.8574,63.7521 123.9243,174.2629 100.8755,139.2317 140.6677,209.6123 159.1614,281.5096 4.9747,19.3399 5.6675,25.7297 5.6743,52.3342 0.01,23.0439 -0.8664,33.4509 -3.6409,43.4366 -16.7472,60.2752 -62.3857,107.1022 -152.4373,156.4072 -76.071,41.6504 -135.3597,58.1387 -185.2126,51.508 z"
             style="opacity:1;fill:#f0f778;fill-opacity:1;stroke:#040404;stroke-width:3.81789947;stroke-linejoin:bevel;stroke-miterlimit:4;stroke-dasharray:none;stroke-dashoffset:0;stroke-opacity:0.5091743" />
          <path
             transform="matrix(0.0205685,0,0,0.02008959,5.4789623,-22.875284)"
             inkscape:connector-curvature="0"
             id="path1658"
             d="m 4351.9657,2627.889 c -52.3253,-23.4752 -114.4671,-57.0047 -170.2709,-91.8719 -26.8714,-16.7898 -78.7524,-52.2964 -79.0627,-54.1094 -0.096,-0.5594 15.2813,-42.9892 34.1711,-94.2884 l 34.3452,-93.2713 6.0609,4.0081 c 3.3335,2.2045 10.9904,6.8664 17.0153,10.3599 l 10.9544,6.3517 -5.522,1.8407 c -5.2314,1.7438 -5.3436,2.038 -2.1309,5.5879 3.1828,3.517 3.0037,6.4526 -2.9153,47.7728 -3.4686,24.214 -6.3028,46.0259 -6.2982,48.4708 0.01,3.9755 10.8305,16.2636 83.9066,95.2657 2.1181,2.2898 3.7456,2.2972 9.9736,0.045 6.8976,-2.4942 7.6903,-2.3748 10.8285,1.6306 l 3.386,4.3218 28.2843,-10.8941 c 25.8467,-9.9552 28.5019,-10.603 30.8096,-7.5164 3.5704,4.7754 3.1506,8.0412 -1.651,12.8428 l -4.1765,4.1764 14.3474,58.75 c 7.891,32.3125 14.0888,59.4491 13.7729,60.3035 -0.316,0.8544 -11.9387,-3.545 -25.8283,-9.7764 z"
             style="opacity:1;fill:#cb6b0c;fill-opacity:1;stroke:#b46d14;stroke-width:3.81789947;stroke-linejoin:bevel;stroke-miterlimit:4;stroke-dasharray:none;stroke-dashoffset:0;stroke-opacity:0.89019608" />
          <path
             transform="matrix(0.0205685,0,0,0.02008959,5.4789623,-22.875284)"
             inkscape:connector-curvature="0"
             id="path1660"
             d="m 4580.769,2526.4215 c -1.2691,-3.8891 -7.411,-25.2315 -13.6487,-47.4276 -6.2377,-22.196 -11.6539,-40.6691 -12.0359,-41.0511 -0.3821,-0.3821 -2.3742,0.3086 -4.427,1.5348 -2.9489,1.7616 -13.2556,-0.2946 -49.1089,-9.7974 l -45.3767,-12.027 -12.7977,10.1835 c -7.0388,5.6009 -13.3579,9.6233 -14.0425,8.9387 -1.1748,-1.1747 2.8052,-39.6858 4.2507,-41.1313 0.3724,-0.3723 46.6774,12.7499 102.9002,29.1604 56.2227,16.4106 101.5736,30.4267 100.7796,31.1469 -0.7939,0.7201 -10.9895,4.7423 -22.6567,8.9381 -11.6673,4.1958 -21.6112,7.9573 -22.0975,8.3589 -0.4864,0.4016 -2.8075,14.1208 -5.1579,30.4871 -3.9945,27.8134 -4.4243,29.2952 -6.581,22.686 z"
             style="opacity:1;fill:#cb6b0c;fill-opacity:1;stroke:#b46d14;stroke-width:3.81789947;stroke-linejoin:bevel;stroke-miterlimit:4;stroke-dasharray:none;stroke-dashoffset:0;stroke-opacity:0.89019608" />
          <path
             transform="matrix(0.0205685,0,0,0.02008959,5.4789623,-22.875284)"
             inkscape:connector-curvature="0"
             id="path1662"
             d="m 4714.6105,2733.4085 c -64.9447,-9.6522 -129.7075,-23.7234 -186.8214,-40.5912 -17.2544,-5.0958 -32.9997,-9.7335 -34.9897,-10.306 -1.99,-0.5724 -3.3537,-1.7435 -3.0305,-2.6023 0.7209,-1.9153 97.0774,-80.6457 98.7797,-80.7103 0.6695,-0.025 19.7386,19.7275 42.3757,43.8954 22.6371,24.1679 42.0903,43.6775 43.2294,43.3546 1.139,-0.3228 27.3401,-10.6616 58.2246,-22.975 30.8845,-12.3134 56.7214,-21.8202 57.4154,-21.1262 0.6939,0.694 -6.7263,22.6242 -16.4895,48.7339 -15.6791,41.9305 -18.2542,47.4522 -22.0601,47.3017 -2.3698,-0.094 -18.8549,-2.3323 -36.6336,-4.9746 z"
             style="opacity:1;fill:#cb6b0c;fill-opacity:1;stroke:#b46d14;stroke-width:3.81789947;stroke-linejoin:bevel;stroke-miterlimit:4;stroke-dasharray:none;stroke-dashoffset:0;stroke-opacity:0.89019608" />
          <path
             transform="matrix(0.0205685,0,0,0.02008959,5.4789623,-22.875284)"
             inkscape:connector-curvature="0"
             id="path1664"
             d="m 4657.6848,2631.8654 c -12.1081,-12.9919 -26.3042,-28.2664 -31.547,-33.9434 l -9.5323,-10.3218 43.9517,-19.4444 43.9517,-19.4443 32.7329,33.8068 c 18.0031,18.5937 32.7766,34.3845 32.83,35.0906 0.082,1.0826 -42.1332,18.9194 -79.9879,33.7968 l -10.3845,4.0812 z"
             style="opacity:1;fill:#f0ba76;fill-opacity:0.66055047;stroke:#f0ba76;stroke-width:3.81789947;stroke-linejoin:bevel;stroke-miterlimit:4;stroke-dasharray:none;stroke-dashoffset:0;stroke-opacity:0.6627451" />
          <path
             transform="matrix(0.0205685,0,0,0.02008959,5.4789623,-22.875284)"
             inkscape:connector-curvature="0"
             id="path1666"
             d="m 4610.597,2557.0551 c 0.053,-5.496 9.327,-64.9277 10.2394,-65.617 0.462,-0.3489 14.8507,-5.6407 31.9749,-11.7593 l 31.1348,-11.1249 10.8665,3.0246 c 5.9766,1.6635 10.4966,4.0013 10.0444,5.1952 -0.4522,1.1938 -2.4154,11.262 -4.3626,22.3736 -1.9471,11.1117 -4.5679,21.3001 -5.8238,22.6408 -1.2559,1.3408 -20.6935,10.5803 -43.1947,20.5322 -32.157,14.2225 -40.9042,17.3755 -40.8789,14.7348 z"
             style="opacity:1;fill:#f0ba76;fill-opacity:0.66055047;stroke:#f0ba76;stroke-width:3.81789947;stroke-linejoin:bevel;stroke-miterlimit:4;stroke-dasharray:none;stroke-dashoffset:0;stroke-opacity:0.6627451" />
          <path
             transform="matrix(0.0205685,0,0,0.02008959,5.4789623,-22.875284)"
             inkscape:connector-curvature="0"
             id="path1668"
             d="m 4755.2021,2562.0059 -29.6607,-31.2072 4.3159,-23.1587 4.3159,-23.1587 13.1293,4.2687 c 12.1621,3.9541 14.3808,5.6663 30.1196,23.2428 11.1187,12.4169 16.9904,20.6172 16.9904,23.7286 0,5.1413 -8.0043,55.9464 -8.9658,56.9079 -0.3212,0.3211 -13.9313,-13.4594 -30.2446,-30.6234 z"
             style="opacity:1;fill:#f0ba76;fill-opacity:0.66055047;stroke:#f0ba76;stroke-width:3.81789947;stroke-linejoin:bevel;stroke-miterlimit:4;stroke-dasharray:none;stroke-dashoffset:0;stroke-opacity:0.6627451" />
          <path
             transform="matrix(0.0205685,0,0,0.02008959,5.4789623,-22.875284)"
             inkscape:connector-curvature="0"
             id="path1670"
             d="m 4495.4074,2636.5206 c 0,-0.5597 -6.412,-21.0986 -14.2488,-45.642 -7.8369,-24.5433 -13.9736,-45.3628 -13.6371,-46.2656 0.8146,-2.1856 72.4121,-61.2605 73.1206,-60.3316 2.2492,2.9484 27.1271,95.8223 25.9585,96.908 -5.0618,4.7032 -69.4167,56.3488 -70.2153,56.3488 -0.5379,0 -0.9779,-0.4579 -0.9779,-1.0176 z"
             style="opacity:1;fill:#f0ba76;fill-opacity:0.66055047;stroke:#f0ba76;stroke-width:3.81789947;stroke-linejoin:bevel;stroke-miterlimit:4;stroke-dasharray:none;stroke-dashoffset:0;stroke-opacity:0.6627451" />
          <path
             transform="matrix(0.0205685,0,0,0.02008959,5.4789623,-22.875284)"
             inkscape:connector-curvature="0"
             id="path1674"
             d="m 4434.1631,2633.5207 c -16.4612,-4.23 -30.2502,-8.0116 -30.6421,-8.4035 -2.0824,-2.0823 -22.3447,-90.6145 -20.739,-90.6145 2.0565,0 56.4863,15.879 57.1923,16.6849 0.2349,0.2682 6.4892,19.5796 13.8983,42.9141 7.4092,23.3345 13.8476,43.5628 14.3076,44.9518 1.1306,3.4136 0.2242,3.2662 -34.0171,-5.5328 z"
             style="opacity:1;fill:#f0ba76;fill-opacity:0.66055047;stroke:#f0ba76;stroke-width:3.81789947;stroke-linejoin:bevel;stroke-miterlimit:4;stroke-dasharray:none;stroke-dashoffset:0;stroke-opacity:0.6627451" />
          <path
             transform="matrix(0.0205685,0,0,0.02008959,5.4789623,-22.875284)"
             inkscape:connector-curvature="0"
             id="path1676"
             d="m 4430.7576,2515.8754 c -10.5561,-3.1663 -23.9826,-7.1584 -29.8367,-8.8713 l -10.6439,-3.1144 33.608,-26.1097 c 18.4844,-14.3604 35.0929,-26.0979 36.9078,-26.0833 3.4322,0.028 54.8181,13.4427 55.9933,14.6179 0.6333,0.6333 -56.7535,48.601 -63.6066,53.1667 -2.4148,1.6087 -8.0683,0.6996 -22.4219,-3.6059 z"
             style="opacity:1;fill:#f0ba76;fill-opacity:0.66055047;stroke:#f0ba76;stroke-width:3.81789947;stroke-linejoin:bevel;stroke-miterlimit:4;stroke-dasharray:none;stroke-dashoffset:0;stroke-opacity:0.6627451" />
          <path
             transform="matrix(0.0205685,0,0,0.02008959,5.4789623,-22.875284)"
             inkscape:connector-curvature="0"
             id="path1678"
             d="m 4308.2561,2482.4798 c 0.5552,-1.9445 3.0127,-15.9501 5.4611,-31.1235 l 4.4517,-27.588 40.637,-18.6024 c 22.3503,-10.2313 41.597,-18.9837 42.7703,-19.4498 3.5724,-1.419 -5.5344,66.1521 -9.2044,68.2958 -3.4289,2.0029 -82.1189,32.0035 -83.9434,32.0035 -0.6499,0 -0.7274,-1.591 -0.1723,-3.5356 z"
             style="opacity:1;fill:#f0ba76;fill-opacity:0.66055047;stroke:#f0ba76;stroke-width:3.81789947;stroke-linejoin:bevel;stroke-miterlimit:4;stroke-dasharray:none;stroke-dashoffset:0;stroke-opacity:0.6627451" />
          <path
             transform="matrix(0.0205685,0,0,0.02008959,5.4789623,-22.875284)"
             inkscape:connector-curvature="0"
             id="path1680"
             d="m 4278.2986,2366.8244 c -16.5307,-16.6637 -29.5919,-30.7616 -29.0248,-31.3287 0.567,-0.567 10.4949,2.4701 22.062,6.7492 16.5783,6.1331 53.8436,18.6968 88.6059,29.8729 2.4513,0.7882 -46.208,25.0041 -50.243,25.0041 -0.7393,0 -14.8694,-13.6339 -31.4001,-30.2975 z"
             style="opacity:1;fill:#f0ba76;fill-opacity:0.66055047;stroke:#f0ba76;stroke-width:3.81789947;stroke-linejoin:bevel;stroke-miterlimit:4;stroke-dasharray:none;stroke-dashoffset:0;stroke-opacity:0.6627451" />
          <path
             transform="matrix(0.0205685,0,0,0.02008959,5.4789623,-22.875284)"
             inkscape:connector-curvature="0"
             id="path1682"
             d="m 4248.5539,2447.9144 -29.6707,-32.0372 4.2281,-30.7716 4.228,-30.7717 30.8271,30.9905 30.827,30.9904 -5.3844,31.8184 -5.3844,31.8184 z"
             style="opacity:1;fill:#f0ba76;fill-opacity:0.66055047;stroke:#f0ba76;stroke-width:3.81789947;stroke-linejoin:bevel;stroke-miterlimit:4;stroke-dasharray:none;stroke-dashoffset:0;stroke-opacity:0.6627451" />
          <path
             transform="matrix(0.0205685,0,0,0.02008959,5.4789623,-22.875284)"
             inkscape:connector-curvature="0"
             id="path1684"
             d="m 4004.4732,1768.5425 c -20.7608,-12.5957 -81.0054,-87.1329 -225.6277,-279.1565 l -59.6367,-79.1831 134.551,-0.5194 c 74.0031,-0.2857 194.9937,-0.2857 268.8681,0 l 134.317,0.5194 -52.643,55.0533 -52.6431,55.0533 h -10.4583 c -31.6186,0 -68.0369,37.9393 -68.0369,70.8694 v 11.386 l -29.5074,31.0974 c -26.4266,27.8507 -41.2033,46.028 -41.2033,50.6859 0,0.8936 6.7431,1.6247 14.9847,1.6247 h 14.9846 l 28.2667,-29.6379 28.2667,-29.638 13.2561,0.4806 c 10.8872,0.3947 15.1624,-0.4703 23.9238,-4.8405 26.8093,-13.3723 47.6816,-46.6106 45.6912,-72.7614 l -0.6783,-8.9124 62.6295,-65.7195 62.6294,-65.7196 14.8946,-0.016 c 11.6376,-0.013 14.457,0.5357 12.8936,2.5088 -1.1005,1.389 -10.4367,14.3442 -20.7471,28.7894 -63.2927,88.6753 -130.5751,177.7847 -171.9977,227.795 -28.6715,34.6158 -78.3346,83.8972 -97.3294,96.5814 -13.5371,9.0398 -19.5546,9.7823 -29.6481,3.6586 z"
             style="opacity:1;fill:#ff0947;fill-opacity:0.81651378;stroke:#ff0947;stroke-width:3.81789947;stroke-linejoin:bevel;stroke-miterlimit:4;stroke-dasharray:none;stroke-dashoffset:0;stroke-opacity:0.81960784" />
          <path
             transform="matrix(0.0205685,0,0,0.02008959,5.4789623,-22.875284)"
             inkscape:connector-curvature="0"
             id="path1686"
             d="m 3056.3578,1440.9553 c 6.2108,-5.1543 31.0063,-18.3507 47.9822,-25.5368 10.7475,-4.5494 27.3921,-10.5459 27.8902,-10.0478 0.1788,0.1788 -4.9149,7.2469 -11.3193,15.7068 l -11.6445,15.3817 -4.736,-0.62 c -8.312,-1.0881 -38.1322,2.6915 -48.1726,6.1057 l -2.0203,0.687 z"
             style="opacity:1;fill:#981ba2;fill-opacity:0.81651378;stroke:#aa44b2;stroke-width:1.90894973;stroke-linejoin:bevel;stroke-miterlimit:4;stroke-dasharray:none;stroke-dashoffset:0;stroke-opacity:1" />
          <path
             transform="matrix(0.0205685,0,0,0.02008959,5.4789623,-22.875284)"
             inkscape:connector-curvature="0"
             id="path1688"
             d="m 3062.9237,1478.6316 c -4.1668,-0.522 -13.2582,-0.7363 -20.203,-0.4763 l -12.6269,0.4728 6.566,-2.9981 c 15.1482,-6.9168 32.2581,-11.7561 47.9603,-13.5649 l 6.0391,-0.6956 -2.5736,3.4282 c -1.4155,1.8855 -4.5286,6.042 -6.918,9.2366 -4.8571,6.4937 -4.2749,6.347 -18.2439,4.5973 z"
             style="opacity:1;fill:#981ba2;fill-opacity:0.81651378;stroke:#aa44b2;stroke-width:1.90894973;stroke-linejoin:bevel;stroke-miterlimit:4;stroke-dasharray:none;stroke-dashoffset:0;stroke-opacity:1" />
          <path
             transform="matrix(0.0205685,0,0,0.02008959,5.4789623,-22.875284)"
             inkscape:connector-curvature="0"
             id="path1690"
             d="m 3019.0205,1520.0011 -18.1444,-10.3287 5.5175,-1.2499 c 11.9004,-2.6958 26.5521,-4.3362 38.7296,-4.3362 7.0124,0 12.7498,0.3487 12.7498,0.775 0,0.4262 -1.9743,3.04 -4.3873,5.8084 -2.413,2.7683 -4.5722,5.522 -4.7982,6.1193 -0.8885,2.3477 -9.5616,13.5035 -10.5125,13.5216 -0.5556,0.011 -9.1751,-4.6287 -19.1545,-10.3095 z"
             style="opacity:1;fill:#981ba2;fill-opacity:0.81651378;stroke:#aa44b2;stroke-width:1.90894973;stroke-linejoin:bevel;stroke-miterlimit:4;stroke-dasharray:none;stroke-dashoffset:0;stroke-opacity:1" />
          <path
             transform="matrix(0.0205685,0,0,0.02008959,5.4789623,-22.875284)"
             inkscape:connector-curvature="0"
             id="path1692"
             d="m 2998.9296,1574.0252 c -3.7775,-5.9839 -7.2612,-13.275 -10.0082,-20.9465 -2.7299,-7.6238 -5.2655,-18.5486 -4.486,-19.3281 0.5202,-0.5202 32.6593,17.3119 34.9011,19.3646 1.1245,1.0297 -0.1851,3.3125 -7.4472,12.9809 -4.8464,6.4522 -9.2049,11.7314 -9.6856,11.7314 -0.4807,0 -1.954,-1.711 -3.2741,-3.8023 z"
             style="opacity:1;fill:#981ba2;fill-opacity:0.81651378;stroke:#aa44b2;stroke-width:1.90894973;stroke-linejoin:bevel;stroke-miterlimit:4;stroke-dasharray:none;stroke-dashoffset:0;stroke-opacity:1" />
          <path
             transform="matrix(0.0205685,0,0,0.02008959,5.4789623,-22.875284)"
             inkscape:connector-curvature="0"
             id="path1694"
             d="m 2959.3132,1627.1322 c -1.2403,-11.5616 -0.7133,-33.5823 1.0944,-45.7319 0.9062,-6.0909 1.8764,-11.4445 2.156,-11.8968 0.2795,-0.4523 2.9585,4.0802 5.9532,10.0723 2.9947,5.9921 7.7023,13.696 10.4612,17.1198 l 5.0163,6.2251 -11.537,15.3899 c -6.3453,8.4645 -11.7204,15.5734 -11.9445,15.7975 -0.2242,0.2242 -0.764,-2.915 -1.1996,-6.9759 z"
             style="opacity:1;fill:#981ba2;fill-opacity:0.81651378;stroke:#aa44b2;stroke-width:1.90894973;stroke-linejoin:bevel;stroke-miterlimit:4;stroke-dasharray:none;stroke-dashoffset:0;stroke-opacity:1" />
          <path
             transform="matrix(0.0205685,0,0,0.02008959,5.4789623,-22.875284)"
             inkscape:connector-curvature="0"
             id="path1696"
             d="m 2920.8899,1683.4726 c -0.3734,-0.9729 -0.4251,-8.8902 -0.115,-17.594 0.5992,-16.8194 3.2477,-34.6556 7.239,-48.7517 l 2.4039,-8.4898 0.091,9.5965 c 0.1167,12.3258 1.6882,25.0096 4.5815,36.9776 l 2.2986,9.508 -6.9877,9.3346 c -8.694,11.6139 -8.6757,11.5958 -9.5111,9.4188 z"
             style="opacity:1;fill:#981ba2;fill-opacity:0.81651378;stroke:#aa44b2;stroke-width:1.90894973;stroke-linejoin:bevel;stroke-miterlimit:4;stroke-dasharray:none;stroke-dashoffset:0;stroke-opacity:1" />
          <path
             transform="matrix(0.0205685,0,0,0.02008959,5.4789623,-22.875284)"
             inkscape:connector-curvature="0"
             id="path1698"
             d="m 3532.112,1412.0152 c -0.9239,-7.3531 0.3745,-55.3202 1.9354,-71.5024 l 1.1661,-12.089 3.0305,-0.7642 c 4.042,-1.0193 92.7761,-9.147 95.2433,-8.724 1.4321,0.2456 -10.575,12.4676 -46.4713,47.3032 -26.6213,25.8347 -49.6991,48.025 -51.284,49.3119 l -2.8818,2.3398 z"
             style="opacity:1;fill:#6dbe47;fill-opacity:1;stroke:#6dbe47;stroke-width:1.90894973;stroke-linejoin:bevel;stroke-miterlimit:4;stroke-dasharray:none;stroke-dashoffset:0;stroke-opacity:1" />
          <path
             transform="matrix(0.0205685,0,0,0.02008959,5.4789623,-22.875284)"
             inkscape:connector-curvature="0"
             id="path1700"
             d="m 3540.2189,1297.2959 c 8.3125,-37.9198 19.7201,-65.808 35.963,-87.9185 l 5.0349,-6.8537 5.3725,5.8436 c 38.5209,41.8988 71.3423,78.6218 71.0517,79.4978 -0.3215,0.9689 -103.0616,11.4469 -114.113,11.6379 -3.4358,0.059 -3.7587,-0.156 -3.3091,-2.2071 z"
             style="opacity:1;fill:#6dbe47;fill-opacity:1;stroke:#6dbe47;stroke-width:1.90894973;stroke-linejoin:bevel;stroke-miterlimit:4;stroke-dasharray:none;stroke-dashoffset:0;stroke-opacity:1" />
          <path
             transform="matrix(0.0205685,0,0,0.02008959,5.4789623,-22.875284)"
             inkscape:connector-curvature="0"
             id="path1702"
             d="m 3633.7251,1220.1745 c -18.5165,-20.3322 -33.2316,-37.2649 -32.7001,-37.6281 0.5315,-0.3632 3.8968,-2.7546 7.4784,-5.3141 13.7425,-9.8206 30.5893,-17.2963 48.4884,-21.5164 10.7043,-2.5238 29.0087,-5.2071 29.8413,-4.3745 0.6273,0.6274 -18.1085,105.801 -18.8476,105.801 -0.3267,0 -15.7439,-16.6356 -34.2604,-36.9679 z"
             style="opacity:1;fill:#6dbe47;fill-opacity:1;stroke:#6dbe47;stroke-width:1.90894973;stroke-linejoin:bevel;stroke-miterlimit:4;stroke-dasharray:none;stroke-dashoffset:0;stroke-opacity:1" />
          <path
             transform="matrix(0.0205685,0,0,0.02008959,5.4789623,-22.875284)"
             inkscape:connector-curvature="0"
             id="path1704"
             d="m 3695.3227,1259.2737 c 0,-1.2166 17.8223,-102.0896 18.7321,-106.0226 0.5317,-2.2982 0.772,-2.3504 7.8283,-1.7006 19.1305,1.7616 49.5755,8.0186 65.155,13.3905 l 5.3475,1.8438 -39.1876,37.9241 c -52.6324,50.9355 -57.8753,55.8785 -57.8753,54.5648 z"
             style="opacity:1;fill:#6dbe47;fill-opacity:1;stroke:#6dbe47;stroke-width:1.90894973;stroke-linejoin:bevel;stroke-miterlimit:4;stroke-dasharray:none;stroke-dashoffset:0;stroke-opacity:1" />
        </g>
      </g>
    </g>
  </g>
</svg>
